<svg width="50" height="32" viewBox="0 0 50 32" fill="none" xmlns="http://www.w3.org/2000/svg">
  <path d="M20.1389 14.0451C22.8993 12.7257 24.3403 10.7292 24.3403 7.62153C24.3403 1.49306 19.7743 0 14.5052 0H0V30.7639H14.9132C20.5035 30.7639 25.7552 28.0816 25.7552 21.8316C25.7552 17.9688 23.9236 15.1128 20.1389 14.0451ZM6.76215 5.25174H13.1076C15.5469 5.25174 17.7431 5.9375 17.7431 8.76736C17.7431 11.3802 16.033 12.4306 13.6198 12.4306H6.76215V5.25174ZM13.9931 25.5382H6.76215V17.066H14.1319C17.1094 17.066 18.9931 18.3073 18.9931 21.4583C18.9931 24.566 16.7448 25.5382 13.9931 25.5382ZM45.1128 4.6441H32.6389V1.61458H45.1128V4.6441ZM50 19.9479C50 13.3594 46.1458 7.86458 39.158 7.86458C32.3698 7.86458 27.7604 12.9687 27.7604 19.6528C27.7604 26.5885 32.1267 31.3455 39.158 31.3455C44.4792 31.3455 47.9253 28.9497 49.5833 23.8542H44.184C43.6024 25.7552 41.2066 26.7622 39.349 26.7622C35.7639 26.7622 33.8802 24.6615 33.8802 21.0938H49.9479C49.974 20.7292 50 20.3385 50 19.9479ZM33.8889 17.2396C34.0885 14.3142 36.033 12.4826 38.967 12.4826C42.0399 12.4826 43.5851 14.2882 43.8455 17.2396H33.8889Z" fill="#ECE9FD"/>
  </svg>
  