<svg width="40" height="46" viewBox="0 0 40 46" fill="none" xmlns="http://www.w3.org/2000/svg">
  <path d="M26.5371 21.7143C26.5371 23.1086 25.5086 24.2514 24.2057 24.2514C22.9257 24.2514 21.8743 23.1086 21.8743 21.7143C21.8743 20.32 22.9029 19.1771 24.2057 19.1771C25.5086 19.1771 26.5371 20.32 26.5371 21.7143ZM15.8629 19.1771C14.56 19.1771 13.5314 20.32 13.5314 21.7143C13.5314 23.1086 14.5829 24.2514 15.8629 24.2514C17.1657 24.2514 18.1943 23.1086 18.1943 21.7143C18.2171 20.32 17.1657 19.1771 15.8629 19.1771ZM40 4.70857V45.7143C34.2416 40.6255 36.0832 42.31 29.3943 36.0914L30.6057 40.32H4.68571C2.10286 40.32 0 38.2171 0 35.6114V4.70857C0 2.10286 2.10286 0 4.68571 0H35.3143C37.8971 0 40 2.10286 40 4.70857ZM33.4857 26.3771C33.4857 19.0171 30.1943 13.0514 30.1943 13.0514C26.9029 10.5829 23.7714 10.6514 23.7714 10.6514L23.4514 11.0171C27.3371 12.2057 29.1429 13.92 29.1429 13.92C23.7133 10.9442 17.3354 10.9437 12.0686 13.2571C11.2229 13.6457 10.72 13.92 10.72 13.92C10.72 13.92 12.6171 12.1143 16.7314 10.9257L16.5029 10.6514C16.5029 10.6514 13.3714 10.5829 10.08 13.0514C10.08 13.0514 6.78857 19.0171 6.78857 26.3771C6.78857 26.3771 8.70857 29.6914 13.76 29.8514C13.76 29.8514 14.6057 28.8229 15.2914 27.9543C12.3886 27.0857 11.2914 25.2571 11.2914 25.2571C11.6277 25.4925 12.1821 25.7976 12.2286 25.8286C16.0866 27.9891 21.5668 28.697 26.4914 26.6286C27.2914 26.3314 28.1829 25.8971 29.12 25.28C29.12 25.28 27.9771 27.1543 24.9829 28C25.6686 28.8686 26.4914 29.8514 26.4914 29.8514C31.5429 29.6914 33.4857 26.3771 33.4857 26.3771Z" fill="#ECE9FD"/>
  </svg>
  