<svg width="50" height="50" viewBox="0 0 50 50" fill="none" xmlns="http://www.w3.org/2000/svg">
  <path d="M25 0C11.2149 0 0 11.2149 0 25C0 38.7851 11.2149 50 25 50C38.7851 50 50 38.7851 50 25C50 11.2149 38.7851 0 25 0ZM41.5292 11.5288C44.5033 15.1625 46.3043 19.7906 46.3513 24.8307C45.6473 24.6819 38.5874 23.2499 31.4822 24.1434C30.9023 22.728 30.355 21.4829 29.6054 19.9485C37.5007 16.725 41.079 12.1378 41.5292 11.5288ZM39.1553 9.05948C38.7713 9.60655 35.5569 13.927 27.9637 16.7731C24.4645 10.3441 20.5862 5.0626 19.996 4.27228C26.7677 2.63992 33.9038 4.4003 39.1553 9.05948ZM15.9215 5.70766C16.4845 6.47974 20.3003 11.7677 23.8385 18.0574C13.8499 20.7099 5.05222 20.6717 4.09718 20.6591C5.48185 14.0328 9.94738 8.5255 15.9215 5.70766ZM3.64617 25.0326C3.64617 24.8142 3.6505 24.5969 3.65706 24.38C4.59133 24.3992 14.9393 24.5326 25.6032 21.3411C26.2145 22.5375 26.7985 23.7519 27.3345 24.965C19.6128 27.1399 12.5972 33.3851 9.13579 39.3104C5.7252 35.5247 3.64617 30.5171 3.64617 25.0326ZM11.8928 41.8786C14.1234 37.3189 20.1769 31.4329 28.7859 28.496C31.7839 36.2866 33.0237 42.8158 33.3412 44.6893C26.4751 47.614 18.2188 46.8116 11.8928 41.8786ZM36.9311 42.7344C36.7123 41.4354 35.5757 35.1843 32.7828 27.5093C39.4743 26.4381 45.3533 28.1915 46.0839 28.4221C45.1321 34.3637 41.7217 39.4951 36.9311 42.7344Z" fill="#ECE9FD"/>
  </svg>
  