<svg width="75" height="36" viewBox="0 0 75 36" fill="none" xmlns="http://www.w3.org/2000/svg">
  <path d="M65.0183 16.7591C70.7871 12.2926 75 8.80977 75 8.80977L64.3027 10.3733L63.3599 0L57.1778 11.4143L48.1757 12.7298L53.7985 16.7389C46.1663 25.5228 33.6721 31.1435 22.7485 35.0204C39.7959 31.6872 52.0458 25.735 59.4967 20.8539L66.4071 26.0269L65.0183 16.7591ZM25.1511 23.0446C24.8925 23.1006 24.3345 23.222 24.0408 23.2829C23.1547 23.4631 22.8861 23.1089 23.2797 21.9037C23.743 20.4866 25.1873 16.0876 25.1873 16.0876L21.7738 16.5872C21.7738 16.5872 20.4601 20.6926 19.7402 22.9033C18.8014 25.7862 20.7628 26.1682 21.873 25.9223C22.3092 25.8244 23.5136 25.5589 24.3985 25.3598L25.1511 23.0446ZM12.7683 23.4886L13.8714 20.0575C14.2576 19.9956 14.2882 19.9812 14.597 19.9295C16.0743 19.6878 16.5661 20.2379 16.2213 21.3048C15.9291 22.2045 15.3325 23.032 13.5651 23.3678C13.2108 23.4332 12.7683 23.4886 12.7683 23.4886ZM14.6541 17.629C13.7147 17.7677 11.776 18.0444 10.9321 18.1731L7.41309 29.1479L11.211 28.2934L11.9673 25.9829C12.2519 25.9223 12.8349 25.8333 13.3341 25.7299C17.6022 24.8488 18.8465 23.4017 19.5905 21.0548C20.1979 18.8954 18.9119 17.0069 14.6541 17.629ZM36.8497 14.3952L33.5995 14.8675L31.3993 21.5892C31.3993 21.5892 30.4446 21.8179 30.0008 21.9115C29.1957 22.0758 28.9632 21.7353 29.3406 20.5876C29.7825 19.2382 31.1161 15.2281 31.1161 15.2281L27.8006 15.715C27.8006 15.715 26.6018 19.4582 25.913 21.558C25.013 24.3026 27.273 24.7154 28.2759 24.4892C29.3384 24.2515 33.5665 23.315 33.938 23.2352L36.8497 14.3952ZM42.8129 19.6338C42.4392 20.6627 41.5818 21.5379 39.2738 22.0521C38.4387 22.2372 36.8432 22.5846 34.8985 23.0141L35.6623 20.7531C36.4938 20.5877 38.4532 20.1976 38.5938 20.1697C39.4062 20.0021 39.827 19.8069 39.921 19.5307C39.9832 19.3458 39.8734 19.1801 39.6198 19.0983C39.1505 18.9468 38.7236 18.8446 37.9798 18.6177C36.7481 18.2416 36.6931 17.0778 36.933 16.4143C37.5787 14.6271 39.044 14.0726 40.7107 13.8439C41.2741 13.763 44.0823 13.3387 44.5868 13.2664L43.9363 15.3017C42.6012 15.5188 41.1172 15.8057 40.4765 15.9122C40.1192 15.971 39.7978 16.1441 39.6951 16.3996C39.5858 16.6631 39.7498 16.8004 40.1034 16.8955C40.1034 16.8955 40.4193 16.9715 41.2821 17.1629C42.9471 17.5185 43.0389 19.0114 42.8129 19.6338Z" fill="#ECE9FD"/>
  <path d="M12.3726 19.4261L10.9481 23.9583L10.7078 24.7063C10.7078 24.7063 11.3797 24.6283 12.3022 24.484C13.4354 24.3065 14.1814 23.9096 14.6225 23.5898C14.3392 23.6972 14.0205 23.7898 13.6538 23.8593C13.2897 23.9266 12.8477 23.9826 12.8289 23.985L12.059 24.0822L12.2996 23.3339L13.3513 20.072C12.6501 19.9891 12.3726 19.4261 12.3726 19.4261Z" fill="#ECE9FD"/>
  <path d="M10.566 25.3339L9.66626 28.1138L10.8313 27.8669L11.4232 26.032C10.734 26.113 10.566 25.3339 10.566 25.3339Z" fill="#ECE9FD"/>
  <path d="M39.5987 20.401C39.3176 20.5343 38.8843 20.6197 38.6889 20.6601L36.0368 21.1882L35.8394 21.763L38.1328 21.2985C38.7223 21.1774 39.1678 20.9431 39.5987 20.401Z" fill="#ECE9FD"/>
  <path d="M16.1837 18.009C15.7387 18.009 15.2477 18.0471 14.7255 18.1236C14.3465 18.1796 11.8226 18.5457 11.3066 18.6221L11.0757 19.3158C11.4397 19.2628 13.324 18.9839 13.7035 18.934C15.2208 18.7336 17.0038 18.7014 17.5788 19.4589C18.8096 21.0812 17.2533 23.6332 16.049 24.3964C17.9049 23.5767 18.6282 22.4564 19.1166 20.9178C19.2707 20.3693 19.3578 19.5857 18.8966 18.9662C18.4306 18.3397 17.4927 18.009 16.1837 18.009Z" fill="#ECE9FD"/>
  <path d="M30.3886 15.8398L28.175 16.1648C28.8997 16.3409 29.0454 16.9799 28.9166 17.3687C28.5029 18.6137 27.9864 20.1725 27.7422 20.9181C27.4786 21.7198 27.4724 22.2119 27.7221 22.5627C27.8439 22.7342 28.2509 23.293 29.2488 23.1018C29.8129 22.9935 30.2433 22.9007 30.2433 22.9007C31.1151 22.7067 31.238 22.1469 31.238 22.1469L31.2452 22.126C30.9507 22.1949 30.3247 22.3542 30.0982 22.4019C29.9377 22.4343 29.7967 22.4504 29.6673 22.4504C29.2147 22.4504 28.9747 22.2459 28.8525 22.0743C28.6031 21.7231 28.6093 21.2315 28.8728 20.4298C29.1936 19.4512 29.9823 17.0739 30.3923 15.8398L30.3886 15.8398Z" fill="#ECE9FD"/>
  <path d="M43.8735 13.877C43.5677 13.923 41.0734 14.2967 40.7767 14.3392C39.7342 14.4815 38.9709 14.7406 38.4121 15.1591C38.8249 15.0076 41.1177 14.7522 42.5142 14.562C43.6214 14.4115 43.8735 13.877 43.8735 13.877Z" fill="#ECE9FD"/>
  <path d="M36.1293 15.0048L33.9716 15.3184C33.9716 15.3184 35.0123 15.6156 34.6888 16.5992C34.5088 17.1471 32.5874 23.0043 32.5874 23.0043L33.5596 22.8064L36.1293 15.0048Z" fill="#ECE9FD"/>
  <path d="M24.4673 16.6981L22.2494 17.0242C22.9741 17.2 23.12 17.8384 22.991 18.2272C22.5776 19.4726 22.0672 21.0328 21.8165 21.7769C21.2696 23.4008 21.7817 24.6085 22.8908 24.5026C23.9142 24.405 24.4138 23.7154 24.4138 23.7154C24.3108 23.737 24.2153 23.7571 24.138 23.7729C23.9594 23.8093 23.8037 23.8271 23.6613 23.8271C23.1803 23.8271 22.9269 23.6131 22.7993 23.4343C22.472 22.9743 22.634 22.2908 22.8119 21.7464C23.1539 20.6994 24.0321 18.024 24.4673 16.6981Z" fill="#ECE9FD"/>
  <path d="M39.6796 15.691C39.148 15.7948 38.4872 16.3027 38.3315 16.6906C38.2112 16.9796 38.2664 17.2091 38.3343 17.3498C38.4888 17.669 38.8279 17.7928 39.0693 17.8581C39.082 17.8614 39.4004 17.9379 40.2695 18.1303C40.7785 18.2395 41.1347 18.4771 41.3318 18.838C41.5571 19.2511 41.5216 19.7235 41.4431 19.9405C41.3029 20.3261 41.0599 20.7621 40.4898 21.1638C40.5815 21.1268 40.6675 21.0889 40.7504 21.0504C41.547 20.5991 41.9801 20.0448 42.1432 19.5964C42.2218 19.3797 42.2572 18.9067 42.0319 18.4936C41.835 18.1327 41.3433 17.9471 40.8374 17.823C39.7449 17.5543 39.2834 17.4235 39.083 16.9894C39.0174 16.8469 38.9595 16.6184 39.0797 16.329C39.203 16.0221 39.4264 15.8122 39.6796 15.691Z" fill="#ECE9FD"/>
  <path d="M10.3015 3.6171C12.1333 3.49082 14.7181 3.35623 14.7181 3.35623L15.5979 0.655151C15.5979 0.655151 14.3197 0.711455 10.1989 0.909779C6.47268 1.08864 3.83758 2.35302 3.13123 4.64512C2.67918 6.11227 3.51033 6.97331 4.24275 7.29048C2.35105 7.98499 0.74178 9.27091 0.18382 11.1643C-0.759096 14.3642 1.997 16.5028 6.81076 15.7283C8.86081 15.4251 11.182 15.0409 11.182 15.0409L12.1583 12.0506C12.1583 12.0506 8.85349 12.4536 7.37034 12.6242C4.55945 12.9476 3.81106 12.2698 4.17742 10.9481C4.47947 9.85801 5.9156 9.15265 7.63342 8.9781C8.60358 8.87931 11.0263 8.65023 11.0263 8.65023L11.8922 5.94232C11.8922 5.94232 10.0202 6.08583 8.16076 6.24152C7.14709 6.33853 6.57741 5.84472 6.78425 5.15452C7.0343 4.32141 7.95935 3.77873 10.3015 3.6171ZM51.1102 18.3941C32.9163 28.5925 3.2994 36 3.2994 36C3.2994 36 21.2415 34.3378 37.3879 27.0363C44.772 23.6968 49.1614 20.0651 51.1102 18.3941ZM53.0296 7.69248C53.4723 7.64569 53.756 7.6081 53.756 7.6081L55.0185 3.65854C55.0152 3.65602 54.6806 3.67384 54.2344 3.70995C53.1983 3.79789 52.4318 4.95768 52.1999 5.68978C51.6411 7.44677 52.5941 7.74121 53.0296 7.69248ZM58.1779 1.59537L55.6927 9.225C55.3886 9.26363 53.2918 9.57575 52.4516 9.68434C50.3038 9.96393 48.8094 8.15583 49.6421 5.62887C50.1018 4.22544 51.4103 2.07581 54.1607 1.8809C55.9654 1.75195 58.1779 1.59537 58.1779 1.59537ZM44.247 7.05561L45.1252 4.33998C45.3913 4.31621 45.4767 4.32245 45.6907 4.30551C46.7183 4.21653 47.0434 4.70974 46.7683 5.56098C46.5318 6.27836 46.0555 6.87155 44.8256 6.99708C44.5805 7.02338 44.5684 7.02263 44.247 7.05561ZM46.2252 2.44141C45.5747 2.48999 43.567 2.62518 42.9932 2.66707L40.2215 11.253L43.0187 10.8981L43.6104 9.03366C43.8061 9.01241 44.1124 8.97453 44.6196 8.91541C47.322 8.59898 48.6288 7.20833 49.1674 5.50006C49.7785 3.5807 49.0817 2.23997 46.2252 2.44141ZM36.7653 9.22381C36.3758 9.67112 35.938 9.92575 35.4478 9.99156C34.9521 10.0541 34.6545 9.89218 34.5544 9.50117C34.4536 9.10957 34.5485 8.49692 34.8389 7.67272C35.4254 6.00605 36.2153 5.1254 37.1964 5.03463C38.16 4.94446 38.3511 5.71741 37.7747 7.34337C37.4889 8.15152 37.1526 8.77873 36.7653 9.22381ZM41.1994 5.30412C41.1818 4.77154 41.0564 4.32022 40.8162 3.95135C40.5749 3.57624 40.2154 3.29369 39.7334 3.10413C39.2473 2.91516 38.6448 2.84118 37.9222 2.89347C37.1938 2.9474 36.4937 3.11482 35.8266 3.39366C35.1537 3.67503 34.5465 4.04539 34.0041 4.49923C33.46 4.95709 32.9821 5.48254 32.5762 6.08538C32.1661 6.68719 31.8531 7.3303 31.6323 8.0098C31.4116 8.68707 31.3195 9.30923 31.3501 9.87048C31.3816 10.4326 31.5379 10.8972 31.8147 11.2663C32.0919 11.6367 32.4935 11.8979 33.0196 12.0596C33.5413 12.2161 34.1782 12.2471 34.9202 12.1443C35.6573 12.0473 36.3475 11.8435 36.9957 11.5375C37.6372 11.2302 38.2112 10.8542 38.7206 10.4066C39.2242 9.95784 39.6647 9.44724 40.0395 8.86876C40.416 8.29681 40.7082 7.69278 40.9153 7.05487C41.1229 6.41711 41.2146 5.83313 41.1994 5.30412ZM32.9005 3.41179C32.3662 3.45086 31.8095 3.47017 31.04 3.52499C28.6593 3.6939 26.304 5.01577 25.3086 8.14603L23.6371 13.3672L27.139 12.9159L28.6762 8.12835C29.2911 6.23528 30.2185 5.99461 32.1262 5.80283L32.9005 3.41179ZM22.4469 13.5222C21.9635 13.5847 17.3024 14.1877 15.9303 14.3639C14.6329 14.5316 12.3016 13.9634 13.2379 11.0078C13.9574 8.74471 15.2607 4.64467 15.2607 4.64467L18.9421 4.39376C18.9421 4.39376 17.5423 8.74991 17.0809 10.2071C16.6872 11.4448 17.0272 11.8415 18.0643 11.7215C18.6435 11.656 19.5827 11.5315 19.5827 11.5315L21.9194 4.17047L25.5061 3.92015L22.4469 13.5222Z" fill="#ECE9FD"/>
  <path d="M62.8712 3.91022C63.1058 6.51815 63.6007 11.6027 63.6007 11.6027L71.2162 10.4888C69.512 11.8554 63.8243 16.3644 63.8243 16.3644L65.1163 23.0009C65.1163 23.0009 61.8613 17.8745 59.9287 19.1484C59.3668 19.519 54.0705 23.5332 46.2688 26.4946C60.0927 18.3855 61.9712 9.93171 62.8712 3.91022Z" fill="#ECE9FD"/>
  <path d="M47.1778 21.0051C39.9256 24.669 35.6997 26.6207 26.5859 30.1922C31.9147 28.6246 39.2012 26.154 47.1778 21.0051Z" fill="#ECE9FD"/>
  <path d="M46.7683 2.92142C46.6074 2.92142 46.4381 2.92794 46.2616 2.94057C45.9037 2.96686 43.6434 3.12217 43.3582 3.14222L43.2212 3.56788C43.3176 3.56149 44.9965 3.44636 45.3538 3.41932C45.5303 3.40729 45.7004 3.40075 45.8611 3.40075C46.5185 3.40075 47.3802 3.51026 47.7542 4.03125C48.1027 4.51644 47.9663 5.27514 47.7911 5.82584C47.4913 6.77705 46.9727 7.50317 46.2293 8.01852C47.4738 7.52739 48.2889 6.64535 48.6983 5.34651C48.8738 4.7961 49.0096 4.03756 48.6614 3.55163C48.2874 3.03108 47.4256 2.92142 46.7683 2.92142Z" fill="#ECE9FD"/>
  <path d="M32.2053 3.95551C32.1829 3.9564 32.1599 3.95781 32.1372 3.95899C31.8233 3.97607 31.4786 3.99517 31.0746 4.02369C30.2985 4.0788 29.2083 4.29471 28.1821 4.96349V4.96379C28.8918 4.85238 30.1805 4.71135 30.7282 4.66204C31.5993 4.5833 32.2053 3.95551 32.2053 3.95551Z" fill="#ECE9FD"/>
  <path d="M35.8609 5.08679C34.8542 5.35836 34.0495 6.32919 33.4673 7.98338C33.1392 8.91409 33.042 9.60889 33.1704 10.1067C33.3125 10.6637 33.7407 10.9835 34.3448 10.9835C34.4258 10.9835 34.5111 10.9782 34.6017 10.9667C35.0491 10.9067 35.7208 10.6318 36.0929 10.3281C35.875 10.4189 35.6191 10.4725 35.509 10.4874C35.4181 10.4988 35.3328 10.5045 35.252 10.5045C34.6479 10.5045 34.2197 10.1848 34.0776 9.62738C33.9497 9.12986 34.0464 8.43549 34.3746 7.50463C34.7698 6.38213 35.2676 5.5757 35.8609 5.08679Z" fill="#ECE9FD"/>
  <path d="M18.2474 4.94232L15.6273 5.12105C15.6273 5.1212 16.9306 5.44706 16.5614 6.46765C16.0688 7.82873 15.5387 9.65785 15.272 10.5005C15.1133 10.9992 14.9435 11.7203 15.3029 12.2211C15.5252 12.5314 16.1311 13.0333 16.9886 12.9662C17.431 12.9311 18.0615 12.8603 18.0615 12.8603C18.8147 12.7552 19.1684 12.0896 19.1684 12.0896C18.8491 12.1306 18.4324 12.1827 18.1198 12.2179C17.9846 12.2339 17.8577 12.2417 17.7425 12.2417C17.2352 12.2417 16.8651 12.0846 16.6424 11.7748C16.2831 11.2742 16.453 10.5526 16.6115 10.0539C16.9579 8.96069 17.8317 6.23626 18.2474 4.94232Z" fill="#ECE9FD"/>
  <path d="M38.3591 3.37695C38.2304 3.37695 38.0961 3.38223 37.958 3.39233C37.2843 3.44254 36.6305 3.59823 36.0145 3.85658C35.6679 4.00127 35.3391 4.17577 35.0266 4.37276C35.0539 4.36132 35.0798 4.34763 35.1076 4.3362C35.7235 4.07786 36.3774 3.92158 37.0511 3.87166C37.1889 3.86186 37.323 3.85687 37.4525 3.85687C37.9158 3.85687 38.3187 3.92189 38.6501 4.05069C39.0334 4.20118 39.3109 4.41546 39.4967 4.70411C39.6864 4.99603 39.7849 5.3539 39.7994 5.80001C39.813 6.27585 39.7259 6.80697 39.5402 7.37699C39.3491 7.96602 39.074 8.53624 38.7222 9.0709C38.3762 9.60496 37.9618 10.0883 37.4879 10.5106C37.2174 10.7488 36.9195 10.965 36.6027 11.1629C36.6632 11.1366 36.7254 11.1137 36.7853 11.0854C37.3848 10.7987 37.9272 10.4428 38.3952 10.0313C38.8688 9.6091 39.2831 9.12533 39.6297 8.59157C39.9813 8.05676 40.2562 7.48714 40.4474 6.89766C40.6327 6.3272 40.7202 5.79578 40.7063 5.32039C40.692 4.87427 40.5932 4.51669 40.4033 4.22507C40.2176 3.93627 39.9401 3.722 39.5567 3.57107C39.2256 3.44242 38.8225 3.37695 38.3591 3.37695Z" fill="#ECE9FD"/>
  <path d="M44.0228 3.82697C43.8853 4.25362 42.8719 7.37959 42.8719 7.37959L42.6353 8.10961V8.1105L43.9702 7.97384C44.6423 7.90491 45.1722 7.69711 45.577 7.35379C45.3616 7.41811 45.1316 7.46837 44.8772 7.49451L43.5428 7.63088L43.7788 6.89999L44.6208 4.29443C43.9376 4.3228 44.0228 3.82697 44.0228 3.82697Z" fill="#ECE9FD"/>
  <path d="M42.4437 8.68729C42.3198 9.08171 41.8589 10.5414 41.8589 10.5414L42.646 10.441C42.646 10.441 42.9546 9.47103 43.0811 9.07319C42.5878 9.10647 42.4437 8.68729 42.4437 8.68729Z" fill="#ECE9FD"/>
  <path d="M52.9243 3.75879C51.8214 4.05813 51.0496 5.21842 50.8231 6.01588C50.0345 8.79212 52.6293 8.61719 53.3431 8.16097C53.2174 8.17672 52.991 8.19782 52.9403 8.19782C52.4932 8.19782 52.0764 7.98814 51.8248 7.63725C51.4743 7.14924 51.4425 6.44201 51.7307 5.53655C51.9044 4.98763 52.3181 4.25527 52.9243 3.75879Z" fill="#ECE9FD"/>
  <path d="M57.4792 2.14639L54.1953 2.37968C53.2887 2.4437 52.5706 2.74259 52.0015 3.14161C52.4833 3.06525 52.7595 3.02925 53.2397 2.99509L56.5239 2.76209C56.5239 2.76209 54.7497 8.18687 54.5243 8.8666H54.5265L55.3225 8.76824L57.4792 2.14639Z" fill="#ECE9FD"/>
  <path d="M29.3598 6.1093C28.4282 6.42259 27.4543 7.09929 26.9963 8.51031L25.6763 12.6197L26.7669 12.4596L28.2077 7.97237C28.5009 7.06933 28.8808 6.4908 29.3604 6.1093C29.3603 6.10936 29.36 6.10924 29.3598 6.1093Z" fill="#ECE9FD"/>
  <path d="M24.8091 4.47023L22.2862 4.64577C22.2862 4.64577 23.5388 4.90842 23.2281 5.85918C23.0775 6.31971 21.7859 10.3553 21.1802 12.2483C20.9914 12.8387 20.8689 13.2209 20.8689 13.2209C21.1866 13.1799 21.878 13.0914 22.074 13.066L24.8131 4.47081V4.47018L24.8091 4.47023Z" fill="#ECE9FD"/>
  <path d="M6.99618 4.02051C6.1197 4.33458 5.36594 4.8445 5.13881 5.5116C4.6352 6.9896 5.84327 7.70197 7.34752 7.621C8.48379 7.55965 8.60598 7.55103 9.56852 7.47245C10.5301 7.39409 11.1945 6.50025 11.1959 6.4984V6.4981C10.4813 6.55383 8.0076 6.7543 7.91372 6.7543C7.27578 6.7543 6.76685 6.53831 6.48091 6.14731C6.24772 5.82865 6.18789 5.42427 6.3124 5.00875C6.43087 4.61416 6.65695 4.28755 6.99676 4.02049C6.99661 4.02056 6.99633 4.02045 6.99618 4.02051Z" fill="#ECE9FD"/>
  <path d="M14.9055 1.18805C14.1416 1.22251 12.6933 1.29089 10.2223 1.40914C9.59623 1.4393 9.00803 1.49975 8.46106 1.58933C7.86882 1.72244 7.07295 2.27246 7.052 2.48416C8.18066 2.33545 10.5191 2.24831 12.3692 2.1412C14.2193 2.03409 14.9055 1.18805 14.9055 1.18805Z" fill="#ECE9FD"/>
  <path d="M4.77966 9.40747C3.70359 9.7083 2.69378 10.5182 2.47054 11.3236C2.28538 11.9914 2.38762 12.5104 2.65422 12.9496C3.37858 14.1429 4.93635 14.2678 6.4485 14.1871C6.97438 14.1589 8.83884 13.9132 9.59104 13.823C11.0196 13.6462 11.4461 12.6409 11.4461 12.6409C10.3771 12.7708 8.45913 13.0024 7.42554 13.1214C6.94653 13.1762 6.51201 13.2047 6.13379 13.2047C5.00645 13.2047 4.27113 12.954 3.88617 12.4387C3.57914 12.0279 3.51749 11.4807 3.70249 10.8127C3.85337 10.2681 4.23006 9.78986 4.77966 9.40747Z" fill="#ECE9FD"/>
  <path d="M48.1758 12.7297L53.7985 16.7384C49.7374 21.4127 44.2997 25.1905 38.4546 28.2874C44.7918 25.5714 50.9576 21.9107 55.7512 16.477L48.1758 12.7297Z" fill="#ECE9FD"/>
  <path d="M63.1692 0.352112L57.178 11.4144C57.178 11.4144 58.696 11.2858 59.1057 10.2579C59.5153 9.22988 63.1692 0.352112 63.1692 0.352112Z" fill="#ECE9FD"/>
  <path d="M59.9821 20.6938C59.794 20.6945 59.6255 20.753 59.4968 20.8534V20.854L66.407 26.0268C66.4072 26.0268 61.2359 21.4154 60.764 21.0139C60.4988 20.7879 60.224 20.6929 59.9821 20.6938Z" fill="#ECE9FD"/>
  <path d="M7.42041 13.122C6.9436 13.1765 6.51089 13.2047 6.13398 13.2047C5.00664 13.2047 4.27144 12.9541 3.88647 12.4387C3.57945 12.028 3.51778 11.481 3.70279 10.8129C3.84605 10.2959 4.19468 9.83943 4.6999 9.46729C4.38686 9.62431 3.6357 10.1052 3.34609 10.9803C2.67403 13.0105 4.70957 13.9246 7.42041 13.122ZM8.16191 6.73724C8.02245 6.74779 7.93032 6.75418 7.91391 6.75418C7.27597 6.75418 6.76709 6.53817 6.48115 6.14717C6.24795 5.82851 6.18803 5.42429 6.31254 5.00877C6.43017 4.61688 6.65429 4.29317 6.98989 4.0271C6.82289 4.0886 6.22553 4.39523 5.95732 5.12509C5.8104 5.52932 5.85302 5.91453 6.07334 6.24447C6.33847 6.63474 7.00629 6.97241 8.16191 6.73724ZM24.8133 4.4701L22.0738 13.0662C21.9891 13.0772 21.7716 13.1104 21.6616 13.1248L24.8133 4.4701ZM40.4035 4.22498C40.5932 4.5166 40.6921 4.87433 40.7064 5.32045C40.7203 5.79583 40.6329 6.32707 40.4472 6.89739C40.2558 7.48627 39.9812 8.05644 39.6293 8.59124C40.3639 7.01148 40.4438 5.9331 40.4303 5.45742C40.4158 5.0113 40.3203 4.65149 40.1271 4.36151C39.6268 3.60921 38.6819 3.47283 37.9584 3.39202C38.0965 3.38192 38.2304 3.37672 38.3595 3.37672C38.8228 3.37672 39.2258 3.44208 39.5571 3.57044C39.9403 3.72197 40.2178 3.93589 40.4035 4.22498ZM29.67 5.90042C29.0415 6.26973 28.5614 6.88402 28.2081 7.97235L26.7669 12.4595L26.4708 12.4979L27.869 8.14408C28.2834 6.86768 28.8714 6.24091 29.67 5.90042ZM42.806 9.03602L42.3494 10.479L42.3982 10.4726L42.6459 10.4409L43.0812 9.07316C42.9722 9.08074 42.883 9.06351 42.806 9.03602ZM57.4793 2.14636L55.3222 8.76818C55.3222 8.76818 55.3211 8.76848 55.3205 8.76848L55.013 8.80636L57.4793 2.14636ZM48.6614 3.55187C49.0099 4.03721 48.8736 4.7953 48.6984 5.3463C48.7601 4.54022 48.9385 3.02538 46.2614 2.93996C46.438 2.92792 46.6077 2.92154 46.7685 2.92154C47.4256 2.92139 48.2874 3.03117 48.6614 3.55187ZM43.2031 7.80255L44.5925 4.38097L43.7789 6.89962L43.5425 7.63082C43.5425 7.63082 44.0807 7.59011 44.2972 7.55312C43.8356 7.72485 43.2031 7.80255 43.2031 7.80255ZM34.3747 7.50469C34.0465 8.43555 33.9497 9.12991 34.0777 9.62743C34.2198 10.1848 34.6478 10.5042 35.2519 10.5042C35.333 10.5042 35.4184 10.499 35.509 10.4876C35.7115 10.4605 35.9058 10.4054 36.0931 10.328C35.8055 10.503 35.3482 10.6621 35.0097 10.6599C34.4056 10.6559 33.9772 10.3401 33.8354 9.78312C33.7071 9.28516 33.7673 8.38668 34.3747 7.50469ZM18.12 12.2181C17.9848 12.2342 17.8577 12.2418 17.7423 12.2418C17.235 12.2418 16.865 12.085 16.6426 11.775C16.2831 11.2743 16.4529 10.5528 16.6115 10.0541C16.9578 8.96026 17.8319 6.23571 18.2475 4.94237C18.2475 4.94237 16.6187 9.13229 16.2727 10.2257C16.1141 10.7241 15.9443 11.4459 16.3036 11.9466C16.526 12.2563 16.8963 12.4139 17.4036 12.4139C17.5184 12.4139 17.8391 12.3763 18.12 12.2181ZM63.8244 16.3644L65.1164 23.0009L63.4043 17.3215C63.4043 17.3215 63.2531 16.8631 63.8244 16.3644ZM63.0163 12.2057C63.0163 12.2057 71.0273 10.64 71.2164 10.4888L63.6009 11.6027C63.6009 11.6027 63.106 6.51812 62.8714 3.91019C62.7719 4.57602 63.0163 12.2057 63.0163 12.2057ZM33.1877 22.8855C33.3018 22.8602 33.4749 22.8249 33.5596 22.8063L36.1292 15.0048L33.1877 22.8855ZM41.1768 17.6506C40.3078 17.4582 39.9892 17.382 39.9765 17.3784C39.7349 17.3137 39.3961 17.1898 39.2416 16.8704C39.1738 16.7297 39.1182 16.4999 39.2388 16.2112C39.3211 16.0047 39.475 15.8279 39.6799 15.691C39.4263 15.8122 39.2032 16.0218 39.0797 16.3289C38.9596 16.6183 39.0175 16.8467 39.0831 16.9892C39.2834 17.4233 39.7452 17.5542 40.8376 17.8229C41.3435 17.947 41.8352 18.1327 42.0321 18.4935C42.2574 18.9066 42.2219 19.3795 42.1433 19.5963C41.9799 20.0458 41.5452 20.602 40.7449 21.0538C41.8025 20.5657 42.1657 19.9694 42.3504 19.4609C42.429 19.2439 42.4645 18.7716 42.2391 18.3585C42.0422 17.9981 41.6858 17.7598 41.1768 17.6506ZM23.6611 23.8272C23.1802 23.8272 22.9271 23.6133 22.7993 23.4338C22.4721 22.9742 22.6338 22.2906 22.8118 21.7463C23.1538 20.6993 24.0318 18.0239 24.4673 16.698C24.4673 16.698 22.8149 20.8712 22.4727 21.9184C22.2948 22.463 22.133 23.1468 22.4602 23.6061C22.5879 23.785 22.8411 23.9989 23.3221 23.9989C23.4644 23.9989 23.6215 23.9869 23.7986 23.945C24.1605 23.8594 24.414 23.7147 24.414 23.7147C24.3108 23.7369 24.2154 23.7572 24.1377 23.7728C23.9595 23.8094 23.8035 23.8272 23.6611 23.8272ZM28.5339 20.6017C28.2704 21.4032 28.2641 21.8955 28.5138 22.2461C28.6356 22.4177 28.876 22.6218 29.3283 22.6218C29.4576 22.6218 29.7951 22.5867 30.0985 22.4013C29.9378 22.4343 29.7968 22.45 29.6674 22.45C29.2148 22.45 28.9747 22.2459 28.8527 22.0743C28.6032 21.7232 28.6095 21.2316 28.8727 20.4295C29.1934 19.4505 29.9831 17.0734 30.3929 15.8395C30.3929 15.8397 28.8547 19.623 28.5339 20.6017ZM13.3218 20.1048L11.6025 24.3535C11.6025 24.3535 12.8475 23.9829 12.8287 23.9847L12.0588 24.0823L12.2993 23.3341L13.3218 20.1048ZM16.1837 18.0089C17.3662 18.2237 18.0916 18.5116 18.5573 19.1378C19.0187 19.7576 19.0852 20.7748 18.3431 22.5961C18.6803 22.1006 18.9179 21.5443 19.1166 20.9177C19.2708 20.369 19.3578 19.5853 18.8966 18.9661C18.4307 18.3396 17.4927 18.0089 16.1837 18.0089ZM11.4232 26.0321L10.8313 27.8669L10.4635 27.9473L11.075 25.9906C11.1928 26.0364 11.3225 26.0435 11.4232 26.0321Z" fill="#ECE9FD"/>
  </svg>
  