<svg width="40" height="39" viewBox="0 0 40 39" fill="none" xmlns="http://www.w3.org/2000/svg">
<path d="M13.379 31.4032C13.379 31.5645 13.1935 31.6936 12.9597 31.6936C12.6935 31.7177 12.5081 31.5887 12.5081 31.4032C12.5081 31.2419 12.6935 31.1129 12.9274 31.1129C13.1694 31.0887 13.379 31.2177 13.379 31.4032ZM10.871 31.0403C10.8145 31.2016 10.9758 31.3871 11.2177 31.4355C11.4274 31.5161 11.6694 31.4355 11.7177 31.2742C11.7661 31.1129 11.6129 30.9274 11.371 30.8548C11.1613 30.7984 10.9274 30.879 10.871 31.0403ZM14.4355 30.9032C14.2016 30.9597 14.0403 31.1129 14.0645 31.2984C14.0887 31.4597 14.2984 31.5645 14.5403 31.5081C14.7742 31.4516 14.9355 31.2984 14.9113 31.1371C14.8871 30.9839 14.6694 30.879 14.4355 30.9032ZM19.7419 0C8.55645 0 0 8.49194 0 19.6774C0 28.621 5.62903 36.2742 13.6694 38.9677C14.7016 39.1532 15.0645 38.5161 15.0645 37.9919C15.0645 37.4919 15.0403 34.7339 15.0403 33.0403C15.0403 33.0403 9.39516 34.25 8.20968 30.6371C8.20968 30.6371 7.29032 28.2903 5.96774 27.6855C5.96774 27.6855 4.12097 26.4194 6.09677 26.4436C6.09677 26.4436 8.10484 26.6048 9.20968 28.5242C10.9758 31.6371 13.9355 30.7419 15.0887 30.2097C15.2742 28.9194 15.7984 28.0242 16.379 27.4919C11.871 26.9919 7.32258 26.3387 7.32258 18.5806C7.32258 16.3629 7.93548 15.25 9.22581 13.8306C9.01613 13.3065 8.33064 11.1452 9.43548 8.35484C11.121 7.83065 15 10.5323 15 10.5323C16.6129 10.0806 18.3468 9.84678 20.0645 9.84678C21.7823 9.84678 23.5161 10.0806 25.129 10.5323C25.129 10.5323 29.0081 7.82258 30.6935 8.35484C31.7984 11.1532 31.1129 13.3065 30.9032 13.8306C32.1936 15.2581 32.9839 16.371 32.9839 18.5806C32.9839 26.3629 28.2339 26.9839 23.7258 27.4919C24.4677 28.129 25.0968 29.3387 25.0968 31.2339C25.0968 33.9516 25.0726 37.3145 25.0726 37.9758C25.0726 38.5 25.4435 39.1371 26.4677 38.9516C34.5323 36.2742 40 28.621 40 19.6774C40 8.49194 30.9274 0 19.7419 0ZM7.83871 27.8145C7.73387 27.8952 7.75806 28.0806 7.89516 28.2339C8.02419 28.3629 8.20968 28.4194 8.31452 28.3145C8.41935 28.2339 8.39516 28.0484 8.25806 27.8952C8.12903 27.7661 7.94355 27.7097 7.83871 27.8145ZM6.96774 27.1613C6.91129 27.2661 6.99194 27.3952 7.15323 27.4758C7.28226 27.5565 7.44355 27.5323 7.5 27.4194C7.55645 27.3145 7.47581 27.1855 7.31452 27.1048C7.15323 27.0565 7.02419 27.0806 6.96774 27.1613ZM9.58065 30.0323C9.45161 30.1371 9.5 30.379 9.68548 30.5323C9.87097 30.7177 10.1048 30.7419 10.2097 30.6129C10.3145 30.5081 10.2661 30.2661 10.1048 30.1129C9.92742 29.9274 9.68548 29.9032 9.58065 30.0323ZM8.66129 28.8468C8.53226 28.9274 8.53226 29.1371 8.66129 29.3226C8.79032 29.5081 9.00806 29.5887 9.1129 29.5081C9.24193 29.4032 9.24193 29.1936 9.1129 29.0081C9 28.8226 8.79032 28.7419 8.66129 28.8468Z" fill="#ECE9FD"/>
</svg>
