<svg width="40" height="40" viewBox="0 0 40 40" fill="none" xmlns="http://www.w3.org/2000/svg">
  <path d="M20.0045 9.74233C14.3291 9.74233 9.75125 14.3201 9.75125 19.9955C9.75125 25.6709 14.3291 30.2487 20.0045 30.2487C25.6799 30.2487 30.2577 25.6709 30.2577 19.9955C30.2577 14.3201 25.6799 9.74233 20.0045 9.74233ZM20.0045 26.6615C16.3369 26.6615 13.3385 23.6721 13.3385 19.9955C13.3385 16.319 16.3279 13.3296 20.0045 13.3296C23.681 13.3296 26.6704 16.319 26.6704 19.9955C26.6704 23.6721 23.6721 26.6615 20.0045 26.6615ZM33.0686 9.32292C33.0686 10.6525 31.9978 11.7144 30.6771 11.7144C29.3475 11.7144 28.2856 10.6436 28.2856 9.32292C28.2856 8.00223 29.3564 6.9314 30.6771 6.9314C31.9978 6.9314 33.0686 8.00223 33.0686 9.32292ZM39.8595 11.7501C39.7078 8.54657 38.976 5.70887 36.6291 3.37089C34.2911 1.03291 31.4534 0.301171 28.2499 0.140547C24.9481 -0.0468489 15.0519 -0.0468489 11.7501 0.140547C8.55549 0.292248 5.71779 1.02398 3.37089 3.36196C1.02398 5.69994 0.301171 8.53765 0.140547 11.7412C-0.0468489 15.0429 -0.0468489 24.9392 0.140547 28.2409C0.292248 31.4445 1.02398 34.2822 3.37089 36.6202C5.71779 38.9582 8.54657 39.6899 11.7501 39.8505C15.0519 40.0379 24.9481 40.0379 28.2499 39.8505C31.4534 39.6988 34.2911 38.9671 36.6291 36.6202C38.9671 34.2822 39.6988 31.4445 39.8595 28.2409C40.0468 24.9392 40.0468 15.0519 39.8595 11.7501ZM35.594 31.7836C34.8979 33.5326 33.5505 34.8801 31.7925 35.5851C29.1601 36.6291 22.9136 36.3882 20.0045 36.3882C17.0954 36.3882 10.8399 36.6202 8.2164 35.5851C6.46737 34.889 5.11991 33.5416 4.41495 31.7836C3.37089 29.1511 3.61182 22.9046 3.61182 19.9955C3.61182 17.0864 3.37981 10.831 4.41495 8.20747C5.11099 6.45845 6.45845 5.11099 8.2164 4.40602C10.8489 3.36196 17.0954 3.6029 20.0045 3.6029C22.9136 3.6029 29.169 3.37089 31.7925 4.40602C33.5416 5.10206 34.889 6.44953 35.594 8.20747C36.638 10.8399 36.3971 17.0864 36.3971 19.9955C36.3971 22.9046 36.638 29.1601 35.594 31.7836Z" fill="#ECE9FD"/>
  </svg>
  