<svg width="50" height="50" viewBox="0 0 50 50" fill="none" xmlns="http://www.w3.org/2000/svg">
  <path d="M25 0C11.1996 0 0 11.1996 0 25C0 38.8004 11.1996 50 25 50C38.8004 50 50 38.8004 50 25C50 11.1996 38.8004 0 25 0ZM35.1512 36.7843C34.7278 36.7843 34.4657 36.6532 34.0726 36.4214C27.7823 32.631 20.4637 32.4698 13.2359 33.9516C12.8427 34.0524 12.3286 34.2137 12.0363 34.2137C11.0585 34.2137 10.4435 33.4375 10.4435 32.621C10.4435 31.5827 11.0585 31.0887 11.8145 30.9274C20.0706 29.1028 28.5081 29.2641 35.7056 33.5685C36.3206 33.9617 36.6835 34.3145 36.6835 35.2319C36.6835 36.1492 35.9677 36.7843 35.1512 36.7843ZM37.8629 30.1714C37.3387 30.1714 36.9859 29.9395 36.623 29.748C30.3226 26.0181 20.9274 24.5161 12.5706 26.7843C12.0867 26.9153 11.8246 27.0464 11.371 27.0464C10.2923 27.0464 9.41532 26.1694 9.41532 25.0907C9.41532 24.0121 9.93952 23.2964 10.9778 23.004C13.7802 22.2177 16.6431 21.6331 20.8367 21.6331C27.379 21.6331 33.6996 23.256 38.6794 26.2198C39.496 26.7036 39.8185 27.3286 39.8185 28.2056C39.8085 29.2944 38.9617 30.1714 37.8629 30.1714ZM40.9879 22.4899C40.4637 22.4899 40.1411 22.3589 39.6875 22.0968C32.5101 17.8125 19.6774 16.7843 11.371 19.1028C11.0081 19.2036 10.5544 19.3649 10.0706 19.3649C8.73992 19.3649 7.72177 18.3266 7.72177 16.9859C7.72177 15.6149 8.56855 14.8387 9.47581 14.5766C13.0242 13.5383 16.996 13.0444 21.3206 13.0444C28.6794 13.0444 36.3911 14.5766 42.0262 17.8629C42.8125 18.3165 43.3266 18.9415 43.3266 20.1411C43.3266 21.5121 42.2177 22.4899 40.9879 22.4899Z" fill="#ECE9FD"/>
  </svg>
  